M48
; DRILL file {KiCad (5.1.4)-1} date 19.01.2020 21:29:49
; FORMAT={-:-/ absolute / inch / decimal}
; #@! TF.CreationDate,2020-01-19T21:29:49+01:00
; #@! TF.GenerationSoftware,Kicad,Pcbnew,(5.1.4)-1
; #@! TF.FileFunction,Plated,1,2,PTH
FMAT,2
INCH
T1C0.0315
T2C0.0394
T3C0.1260
%
G90
G05
T1
X5.18Y-2.451
X3.78Y-2.851
X6.18Y-2.651
X5.38Y-2.351
X3.55Y-2.451
X5.28Y-2.751
X4.58Y-3.051
X4.98Y-2.251
X4.28Y-2.251
X2.78Y-2.151
X3.55Y-2.851
X6.18Y-2.951
X3.78Y-2.451
X5.58Y-2.351
X5.48Y-2.751
X4.78Y-3.051
X3.88Y-2.351
X3.78Y-2.15
X5.68Y-2.451
X2.88Y-2.651
X5.88Y-2.351
X3.55Y-2.251
X3.45Y-2.451
X5.78Y-2.751
X5.08Y-3.051
X3.98Y-2.15
X5.88Y-2.451
X2.58Y-2.651
X4.28Y-2.951
X5.48Y-2.451
X5.48Y-2.851
X2.88Y-2.751
X5.88Y-3.051
X2.88Y-2.351
X4.28Y-2.15
X3.45Y-2.851
X5.98Y-3.051
X3.08Y-2.551
X3.08Y-2.651
X4.78Y-2.951
X4.08Y-2.351
X3.65Y-2.251
X5.18Y-2.15
X5.58Y-2.451
X5.98Y-2.751
X3.65Y-2.651
X5.88Y-2.15
X3.78Y-2.751
X5.18Y-2.851
X5.18Y-2.951
X5.18Y-2.251
X2.98Y-2.451
X5.48Y-2.15
X5.98Y-2.851
X5.28Y-2.451
X2.98Y-2.651
X4.58Y-2.951
X5.68Y-3.051
X3.98Y-2.351
X3.28Y-2.651
X6.18Y-2.851
X4.48Y-2.751
X4.88Y-2.851
X5.58Y-2.951
X5.68Y-2.15
X4.38Y-2.451
X3.98Y-2.851
X3.55Y-2.551
X3.78Y-2.351
X4.38Y-2.751
X5.88Y-2.951
X5.08Y-2.251
X3.45Y-2.251
X3.28Y-2.251
X4.88Y-2.451
X4.38Y-2.851
X4.68Y-2.351
X4.48Y-2.251
X5.38Y-2.15
X3.98Y-2.751
X3.88Y-3.051
X4.28Y-2.351
X3.65Y-2.751
X3.18Y-2.551
X4.98Y-2.451
X3.88Y-2.951
X5.18Y-2.351
X4.48Y-2.15
X4.18Y-2.751
X4.28Y-3.051
X5.48Y-2.251
X3.98Y-2.251
X2.88Y-2.151
X3.18Y-2.751
X6.18Y-3.051
X4.58Y-2.851
X6.08Y-2.551
X5.08Y-2.351
X2.88Y-2.251
X2.68Y-2.551
X4.88Y-2.751
X6.08Y-2.651
X4.68Y-3.051
X4.38Y-2.251
X3.08Y-2.151
X3.18Y-2.451
X5.98Y-2.951
X5.08Y-2.451
X5.68Y-2.351
X3.45Y-2.551
X5.58Y-2.751
X3.98Y-2.951
X4.88Y-3.051
X4.88Y-2.251
X4.58Y-2.451
X3.88Y-2.851
X4.18Y-2.451
X5.68Y-2.751
X2.78Y-2.751
X5.58Y-3.051
X4.08Y-2.15
X3.98Y-2.451
X3.45Y-2.651
X4.38Y-2.951
X2.98Y-2.351
X3.28Y-2.551
X5.78Y-2.851
X3.08Y-2.751
X5.68Y-2.951
X5.48Y-3.051
X4.38Y-2.15
X4.98Y-2.851
X4.98Y-2.951
X2.78Y-2.451
X5.78Y-2.15
X4.48Y-2.851
X4.08Y-2.951
X5.18Y-3.051
X3.08Y-2.351
X6.08Y-2.951
X4.08Y-2.751
X5.28Y-2.851
X4.88Y-2.951
X5.28Y-2.251
X3.08Y-2.451
X2.98Y-2.251
X4.98Y-2.15
X5.78Y-2.451
X5.58Y-2.851
X5.28Y-2.951
X5.38Y-3.051
X4.58Y-2.251
X4.58Y-2.751
X5.68Y-2.851
X5.48Y-2.951
X3.45Y-2.351
X2.58Y-2.551
X2.68Y-2.651
X3.55Y-2.651
X4.38Y-2.351
X4.18Y-2.251
X4.78Y-2.15
X3.88Y-2.751
X3.45Y-2.751
X5.38Y-2.251
X3.18Y-2.351
X2.78Y-2.651
X4.78Y-2.351
X4.98Y-2.751
X3.98Y-3.051
X5.58Y-2.251
X3.08Y-2.251
X3.18Y-2.651
X4.68Y-2.451
X5.98Y-2.651
X5.28Y-2.351
X4.68Y-2.15
X5.18Y-2.751
X4.18Y-2.951
X4.48Y-3.051
X3.65Y-2.351
X4.08Y-2.251
X2.98Y-2.151
X3.65Y-2.851
X6.08Y-3.051
X2.98Y-2.551
X4.68Y-2.851
X5.48Y-2.351
X3.88Y-2.451
X5.38Y-2.751
X2.58Y-2.751
X4.38Y-3.051
X3.55Y-2.351
X3.28Y-2.151
X3.28Y-2.751
X4.08Y-2.451
X3.78Y-2.951
X5.78Y-2.351
X4.68Y-2.951
X4.98Y-3.051
X5.78Y-2.251
X3.88Y-2.15
X5.38Y-2.451
X4.78Y-2.851
X5.28Y-2.15
X4.78Y-2.451
X5.88Y-2.751
X2.48Y-2.751
X5.78Y-3.051
X5.88Y-2.251
X4.18Y-2.15
X3.28Y-2.351
X2.88Y-2.551
X4.08Y-2.851
X4.48Y-2.951
X2.78Y-2.351
X4.28Y-2.451
X5.98Y-2.551
X3.65Y-2.551
X4.78Y-2.251
X5.08Y-2.851
X5.08Y-2.951
X4.58Y-2.351
X2.88Y-2.451
X4.58Y-2.15
X5.28Y-3.051
X5.68Y-2.251
X4.88Y-2.15
X4.28Y-2.751
X5.38Y-2.851
X5.38Y-2.951
X4.98Y-2.351
X5.58Y-2.15
X2.48Y-2.551
X2.48Y-2.651
X4.18Y-3.051
X4.78Y-2.751
X5.88Y-2.851
X5.78Y-2.951
X2.78Y-2.251
X2.78Y-2.551
X4.18Y-2.851
X4.48Y-2.351
X3.18Y-2.251
X5.08Y-2.15
X4.68Y-2.751
X2.98Y-2.751
X3.78Y-3.051
X4.18Y-2.351
X3.78Y-2.251
X3.55Y-2.751
X6.18Y-2.751
X4.48Y-2.451
X4.28Y-2.851
X6.18Y-2.551
X3.65Y-2.451
X4.88Y-2.351
X5.08Y-2.751
X2.68Y-2.751
X6.08Y-2.751
X4.08Y-3.051
X4.68Y-2.251
X3.88Y-2.251
X3.18Y-2.151
X3.28Y-2.451
X6.08Y-2.851
T2
X2.4803Y-2.9315
X2.4803Y-3.0315
X2.5803Y-2.9315
X2.5803Y-3.0315
X2.6803Y-2.9315
X2.6803Y-3.0315
X2.7803Y-2.9315
X2.7803Y-3.0315
X2.8803Y-2.9315
X2.8803Y-3.0315
X2.9803Y-2.9315
X2.9803Y-3.0315
X3.0803Y-2.9315
X3.0803Y-3.0315
X3.1803Y-2.9315
X3.1803Y-3.0315
T3
X6.112Y-2.3228
X2.541Y-2.3228
T0
M30
