G04 #@! TF.GenerationSoftware,KiCad,Pcbnew,(5.1.4)-1*
G04 #@! TF.CreationDate,2020-01-19T21:29:46+01:00*
G04 #@! TF.ProjectId,EuroHelper,4575726f-4865-46c7-9065-722e6b696361,rev?*
G04 #@! TF.SameCoordinates,Original*
G04 #@! TF.FileFunction,Legend,Top*
G04 #@! TF.FilePolarity,Positive*
%FSLAX46Y46*%
G04 Gerber Fmt 4.6, Leading zero omitted, Abs format (unit mm)*
G04 Created by KiCad (PCBNEW (5.1.4)-1) date 2020-01-19 21:29:46*
%MOMM*%
%LPD*%
G04 APERTURE LIST*
%ADD10C,0.120000*%
%ADD11C,0.150000*%
%ADD12C,0.600000*%
G04 APERTURE END LIST*
D10*
X69342000Y-71120000D02*
X66802000Y-71120000D01*
X69342000Y-63500000D02*
X69342000Y-71120000D01*
X66802000Y-63500000D02*
X69342000Y-63500000D01*
X66802000Y-63500000D02*
X64262000Y-63500000D01*
X66802000Y-71120000D02*
X66802000Y-63500000D01*
X64262000Y-71120000D02*
X66802000Y-71120000D01*
X64262000Y-71120000D02*
X61722000Y-71120000D01*
X64262000Y-63500000D02*
X64262000Y-71120000D01*
X61722000Y-63500000D02*
X64262000Y-63500000D01*
X61722000Y-71120000D02*
X61722000Y-63500000D01*
X93980000Y-55880000D02*
X91440000Y-55880000D01*
X93980000Y-73914000D02*
X93980000Y-55880000D01*
X91440000Y-73914000D02*
X93980000Y-73914000D01*
X91440000Y-73914000D02*
X88900000Y-73914000D01*
X91440000Y-55880000D02*
X91440000Y-73914000D01*
X88900000Y-55880000D02*
X91440000Y-55880000D01*
X86360000Y-55880000D02*
X88900000Y-55880000D01*
X86360000Y-73914000D02*
X86360000Y-55880000D01*
X88900000Y-73914000D02*
X86360000Y-73914000D01*
X88900000Y-55880000D02*
X88900000Y-73914000D01*
D11*
X87701428Y-77330133D02*
X87701428Y-76568228D01*
X88082380Y-76949180D02*
X87320476Y-76949180D01*
X88082380Y-75568228D02*
X88082380Y-76139657D01*
X88082380Y-75853942D02*
X87082380Y-75853942D01*
X87225238Y-75949180D01*
X87320476Y-76044419D01*
X87368095Y-76139657D01*
X87177619Y-75187276D02*
X87130000Y-75139657D01*
X87082380Y-75044419D01*
X87082380Y-74806323D01*
X87130000Y-74711085D01*
X87177619Y-74663466D01*
X87272857Y-74615847D01*
X87368095Y-74615847D01*
X87510952Y-74663466D01*
X88082380Y-75234895D01*
X88082380Y-74615847D01*
X89670000Y-76657104D02*
X89622380Y-76752342D01*
X89622380Y-76895200D01*
X89670000Y-77038057D01*
X89765238Y-77133295D01*
X89860476Y-77180914D01*
X90050952Y-77228533D01*
X90193809Y-77228533D01*
X90384285Y-77180914D01*
X90479523Y-77133295D01*
X90574761Y-77038057D01*
X90622380Y-76895200D01*
X90622380Y-76799961D01*
X90574761Y-76657104D01*
X90527142Y-76609485D01*
X90193809Y-76609485D01*
X90193809Y-76799961D01*
X90622380Y-76180914D02*
X89622380Y-76180914D01*
X90622380Y-75609485D01*
X89622380Y-75609485D01*
X90622380Y-75133295D02*
X89622380Y-75133295D01*
X89622380Y-74895200D01*
X89670000Y-74752342D01*
X89765238Y-74657104D01*
X89860476Y-74609485D01*
X90050952Y-74561866D01*
X90193809Y-74561866D01*
X90384285Y-74609485D01*
X90479523Y-74657104D01*
X90574761Y-74752342D01*
X90622380Y-74895200D01*
X90622380Y-75133295D01*
X92849428Y-77333333D02*
X92849428Y-76571428D01*
X93230380Y-75571428D02*
X93230380Y-76142857D01*
X93230380Y-75857142D02*
X92230380Y-75857142D01*
X92373238Y-75952380D01*
X92468476Y-76047619D01*
X92516095Y-76142857D01*
X92325619Y-75190476D02*
X92278000Y-75142857D01*
X92230380Y-75047619D01*
X92230380Y-74809523D01*
X92278000Y-74714285D01*
X92325619Y-74666666D01*
X92420857Y-74619047D01*
X92516095Y-74619047D01*
X92658952Y-74666666D01*
X93230380Y-75238095D01*
X93230380Y-74619047D01*
X138906952Y-68143380D02*
X138906952Y-67143380D01*
X138906952Y-67524333D02*
X139002190Y-67476714D01*
X139192666Y-67476714D01*
X139287904Y-67524333D01*
X139335523Y-67571952D01*
X139383142Y-67667190D01*
X139383142Y-67952904D01*
X139335523Y-68048142D01*
X139287904Y-68095761D01*
X139192666Y-68143380D01*
X139002190Y-68143380D01*
X138906952Y-68095761D01*
X139716476Y-67476714D02*
X139954571Y-68143380D01*
X140192666Y-67476714D02*
X139954571Y-68143380D01*
X139859333Y-68381476D01*
X139811714Y-68429095D01*
X139716476Y-68476714D01*
X141240285Y-67143380D02*
X141478380Y-68143380D01*
X141668857Y-67429095D01*
X141859333Y-68143380D01*
X142097428Y-67143380D01*
X142621238Y-68143380D02*
X142526000Y-68095761D01*
X142478380Y-68048142D01*
X142430761Y-67952904D01*
X142430761Y-67667190D01*
X142478380Y-67571952D01*
X142526000Y-67524333D01*
X142621238Y-67476714D01*
X142764095Y-67476714D01*
X142859333Y-67524333D01*
X142906952Y-67571952D01*
X142954571Y-67667190D01*
X142954571Y-67952904D01*
X142906952Y-68048142D01*
X142859333Y-68095761D01*
X142764095Y-68143380D01*
X142621238Y-68143380D01*
X143526000Y-68143380D02*
X143430761Y-68095761D01*
X143383142Y-68048142D01*
X143335523Y-67952904D01*
X143335523Y-67667190D01*
X143383142Y-67571952D01*
X143430761Y-67524333D01*
X143526000Y-67476714D01*
X143668857Y-67476714D01*
X143764095Y-67524333D01*
X143811714Y-67571952D01*
X143859333Y-67667190D01*
X143859333Y-67952904D01*
X143811714Y-68048142D01*
X143764095Y-68095761D01*
X143668857Y-68143380D01*
X143526000Y-68143380D01*
X144287904Y-68143380D02*
X144287904Y-67143380D01*
X144526000Y-67143380D01*
X144668857Y-67191000D01*
X144764095Y-67286238D01*
X144811714Y-67381476D01*
X144859333Y-67571952D01*
X144859333Y-67714809D01*
X144811714Y-67905285D01*
X144764095Y-68000523D01*
X144668857Y-68095761D01*
X144526000Y-68143380D01*
X144287904Y-68143380D01*
X145192666Y-67143380D02*
X145430761Y-68143380D01*
X145621238Y-67429095D01*
X145811714Y-68143380D01*
X146049809Y-67143380D01*
X146573619Y-68143380D02*
X146478380Y-68095761D01*
X146430761Y-68048142D01*
X146383142Y-67952904D01*
X146383142Y-67667190D01*
X146430761Y-67571952D01*
X146478380Y-67524333D01*
X146573619Y-67476714D01*
X146716476Y-67476714D01*
X146811714Y-67524333D01*
X146859333Y-67571952D01*
X146906952Y-67667190D01*
X146906952Y-67952904D01*
X146859333Y-68048142D01*
X146811714Y-68095761D01*
X146716476Y-68143380D01*
X146573619Y-68143380D01*
X147335523Y-68143380D02*
X147335523Y-67476714D01*
X147335523Y-67667190D02*
X147383142Y-67571952D01*
X147430761Y-67524333D01*
X147526000Y-67476714D01*
X147621238Y-67476714D01*
X147954571Y-68143380D02*
X147954571Y-67143380D01*
X148049809Y-67762428D02*
X148335523Y-68143380D01*
X148335523Y-67476714D02*
X147954571Y-67857666D01*
X149145047Y-68095761D02*
X149049809Y-68143380D01*
X148859333Y-68143380D01*
X148764095Y-68095761D01*
X148716476Y-68000523D01*
X148716476Y-67619571D01*
X148764095Y-67524333D01*
X148859333Y-67476714D01*
X149049809Y-67476714D01*
X149145047Y-67524333D01*
X149192666Y-67619571D01*
X149192666Y-67714809D01*
X148716476Y-67810047D01*
X150192666Y-68143380D02*
X149859333Y-67667190D01*
X149621238Y-68143380D02*
X149621238Y-67143380D01*
X150002190Y-67143380D01*
X150097428Y-67191000D01*
X150145047Y-67238619D01*
X150192666Y-67333857D01*
X150192666Y-67476714D01*
X150145047Y-67571952D01*
X150097428Y-67619571D01*
X150002190Y-67667190D01*
X149621238Y-67667190D01*
D12*
X95442285Y-65927314D02*
X96442285Y-65927314D01*
X96870857Y-67498742D02*
X95442285Y-67498742D01*
X95442285Y-64498742D01*
X96870857Y-64498742D01*
X99442285Y-65498742D02*
X99442285Y-67498742D01*
X98156571Y-65498742D02*
X98156571Y-67070171D01*
X98299428Y-67355885D01*
X98585142Y-67498742D01*
X99013714Y-67498742D01*
X99299428Y-67355885D01*
X99442285Y-67213028D01*
X100870857Y-67498742D02*
X100870857Y-65498742D01*
X100870857Y-66070171D02*
X101013714Y-65784457D01*
X101156571Y-65641600D01*
X101442285Y-65498742D01*
X101728000Y-65498742D01*
X103156571Y-67498742D02*
X102870857Y-67355885D01*
X102728000Y-67213028D01*
X102585142Y-66927314D01*
X102585142Y-66070171D01*
X102728000Y-65784457D01*
X102870857Y-65641600D01*
X103156571Y-65498742D01*
X103585142Y-65498742D01*
X103870857Y-65641600D01*
X104013714Y-65784457D01*
X104156571Y-66070171D01*
X104156571Y-66927314D01*
X104013714Y-67213028D01*
X103870857Y-67355885D01*
X103585142Y-67498742D01*
X103156571Y-67498742D01*
X107728000Y-67498742D02*
X107728000Y-64498742D01*
X108870857Y-64498742D01*
X109156571Y-64641600D01*
X109299428Y-64784457D01*
X109442285Y-65070171D01*
X109442285Y-65498742D01*
X109299428Y-65784457D01*
X109156571Y-65927314D01*
X108870857Y-66070171D01*
X107728000Y-66070171D01*
X110728000Y-67498742D02*
X110728000Y-65498742D01*
X110728000Y-66070171D02*
X110870857Y-65784457D01*
X111013714Y-65641600D01*
X111299428Y-65498742D01*
X111585142Y-65498742D01*
X113013714Y-67498742D02*
X112728000Y-67355885D01*
X112585142Y-67213028D01*
X112442285Y-66927314D01*
X112442285Y-66070171D01*
X112585142Y-65784457D01*
X112728000Y-65641600D01*
X113013714Y-65498742D01*
X113442285Y-65498742D01*
X113728000Y-65641600D01*
X113870857Y-65784457D01*
X114013714Y-66070171D01*
X114013714Y-66927314D01*
X113870857Y-67213028D01*
X113728000Y-67355885D01*
X113442285Y-67498742D01*
X113013714Y-67498742D01*
X114870857Y-65498742D02*
X116013714Y-65498742D01*
X115299428Y-64498742D02*
X115299428Y-67070171D01*
X115442285Y-67355885D01*
X115728000Y-67498742D01*
X116013714Y-67498742D01*
X117442285Y-67498742D02*
X117156571Y-67355885D01*
X117013714Y-67213028D01*
X116870857Y-66927314D01*
X116870857Y-66070171D01*
X117013714Y-65784457D01*
X117156571Y-65641600D01*
X117442285Y-65498742D01*
X117870857Y-65498742D01*
X118156571Y-65641600D01*
X118299428Y-65784457D01*
X118442285Y-66070171D01*
X118442285Y-66927314D01*
X118299428Y-67213028D01*
X118156571Y-67355885D01*
X117870857Y-67498742D01*
X117442285Y-67498742D01*
X122013714Y-67498742D02*
X122013714Y-64498742D01*
X123013714Y-66641600D01*
X124013714Y-64498742D01*
X124013714Y-67498742D01*
D11*
X61884038Y-78697200D02*
X61788800Y-78649580D01*
X61645942Y-78649580D01*
X61503085Y-78697200D01*
X61407847Y-78792438D01*
X61360228Y-78887676D01*
X61312609Y-79078152D01*
X61312609Y-79221009D01*
X61360228Y-79411485D01*
X61407847Y-79506723D01*
X61503085Y-79601961D01*
X61645942Y-79649580D01*
X61741180Y-79649580D01*
X61884038Y-79601961D01*
X61931657Y-79554342D01*
X61931657Y-79221009D01*
X61741180Y-79221009D01*
X62788800Y-79649580D02*
X62788800Y-79125771D01*
X62741180Y-79030533D01*
X62645942Y-78982914D01*
X62455466Y-78982914D01*
X62360228Y-79030533D01*
X62788800Y-79601961D02*
X62693561Y-79649580D01*
X62455466Y-79649580D01*
X62360228Y-79601961D01*
X62312609Y-79506723D01*
X62312609Y-79411485D01*
X62360228Y-79316247D01*
X62455466Y-79268628D01*
X62693561Y-79268628D01*
X62788800Y-79221009D01*
X63122133Y-78982914D02*
X63503085Y-78982914D01*
X63264990Y-78649580D02*
X63264990Y-79506723D01*
X63312609Y-79601961D01*
X63407847Y-79649580D01*
X63503085Y-79649580D01*
X64217371Y-79601961D02*
X64122133Y-79649580D01*
X63931657Y-79649580D01*
X63836419Y-79601961D01*
X63788800Y-79506723D01*
X63788800Y-79125771D01*
X63836419Y-79030533D01*
X63931657Y-78982914D01*
X64122133Y-78982914D01*
X64217371Y-79030533D01*
X64264990Y-79125771D01*
X64264990Y-79221009D01*
X63788800Y-79316247D01*
X65438352Y-79579742D02*
X65390733Y-79627361D01*
X65247876Y-79674980D01*
X65152638Y-79674980D01*
X65009780Y-79627361D01*
X64914542Y-79532123D01*
X64866923Y-79436885D01*
X64819304Y-79246409D01*
X64819304Y-79103552D01*
X64866923Y-78913076D01*
X64914542Y-78817838D01*
X65009780Y-78722600D01*
X65152638Y-78674980D01*
X65247876Y-78674980D01*
X65390733Y-78722600D01*
X65438352Y-78770219D01*
X65724066Y-78674980D02*
X66057400Y-79674980D01*
X66390733Y-78674980D01*
X68335495Y-78725780D02*
X67859304Y-78725780D01*
X67811685Y-79201971D01*
X67859304Y-79154352D01*
X67954542Y-79106733D01*
X68192638Y-79106733D01*
X68287876Y-79154352D01*
X68335495Y-79201971D01*
X68383114Y-79297209D01*
X68383114Y-79535304D01*
X68335495Y-79630542D01*
X68287876Y-79678161D01*
X68192638Y-79725780D01*
X67954542Y-79725780D01*
X67859304Y-79678161D01*
X67811685Y-79630542D01*
X74803095Y-78773400D02*
X74707857Y-78725780D01*
X74565000Y-78725780D01*
X74422142Y-78773400D01*
X74326904Y-78868638D01*
X74279285Y-78963876D01*
X74231666Y-79154352D01*
X74231666Y-79297209D01*
X74279285Y-79487685D01*
X74326904Y-79582923D01*
X74422142Y-79678161D01*
X74565000Y-79725780D01*
X74660238Y-79725780D01*
X74803095Y-79678161D01*
X74850714Y-79630542D01*
X74850714Y-79297209D01*
X74660238Y-79297209D01*
X75279285Y-79725780D02*
X75279285Y-78725780D01*
X75850714Y-79725780D01*
X75850714Y-78725780D01*
X76326904Y-79725780D02*
X76326904Y-78725780D01*
X76565000Y-78725780D01*
X76707857Y-78773400D01*
X76803095Y-78868638D01*
X76850714Y-78963876D01*
X76898333Y-79154352D01*
X76898333Y-79297209D01*
X76850714Y-79487685D01*
X76803095Y-79582923D01*
X76707857Y-79678161D01*
X76565000Y-79725780D01*
X76326904Y-79725780D01*
X69100866Y-79319428D02*
X69862771Y-79319428D01*
X69481819Y-79700380D02*
X69481819Y-78938476D01*
X70862771Y-79700380D02*
X70291342Y-79700380D01*
X70577057Y-79700380D02*
X70577057Y-78700380D01*
X70481819Y-78843238D01*
X70386580Y-78938476D01*
X70291342Y-78986095D01*
X71243723Y-78795619D02*
X71291342Y-78748000D01*
X71386580Y-78700380D01*
X71624676Y-78700380D01*
X71719914Y-78748000D01*
X71767533Y-78795619D01*
X71815152Y-78890857D01*
X71815152Y-78986095D01*
X71767533Y-79128952D01*
X71196104Y-79700380D01*
X71815152Y-79700380D01*
X78930666Y-79370228D02*
X79692571Y-79370228D01*
X80692571Y-79751180D02*
X80121142Y-79751180D01*
X80406857Y-79751180D02*
X80406857Y-78751180D01*
X80311619Y-78894038D01*
X80216380Y-78989276D01*
X80121142Y-79036895D01*
X81073523Y-78846419D02*
X81121142Y-78798800D01*
X81216380Y-78751180D01*
X81454476Y-78751180D01*
X81549714Y-78798800D01*
X81597333Y-78846419D01*
X81644952Y-78941657D01*
X81644952Y-79036895D01*
X81597333Y-79179752D01*
X81025904Y-79751180D01*
X81644952Y-79751180D01*
D10*
X73152000Y-72466200D02*
X82092800Y-72466200D01*
X73152000Y-71983600D02*
X73152000Y-72466200D01*
X70612000Y-71983600D02*
X73152000Y-71983600D01*
X70612000Y-72440800D02*
X70612000Y-71983600D01*
X61214000Y-72440800D02*
X70612000Y-72440800D01*
X61670000Y-78330000D02*
X61670000Y-77000000D01*
X63000000Y-78330000D02*
X61670000Y-78330000D01*
X61670000Y-75730000D02*
X61670000Y-73130000D01*
X64270000Y-75730000D02*
X61670000Y-75730000D01*
X64270000Y-78330000D02*
X64270000Y-75730000D01*
X61670000Y-73130000D02*
X82110000Y-73130000D01*
X64270000Y-78330000D02*
X82110000Y-78330000D01*
X82110000Y-78330000D02*
X82110000Y-73130000D01*
M02*
