G04 #@! TF.GenerationSoftware,KiCad,Pcbnew,(5.1.4)-1*
G04 #@! TF.CreationDate,2020-01-19T21:47:34+01:00*
G04 #@! TF.ProjectId,EuroHelper,4575726f-4865-46c7-9065-722e6b696361,rev?*
G04 #@! TF.SameCoordinates,Original*
G04 #@! TF.FileFunction,Copper,L1,Top*
G04 #@! TF.FilePolarity,Positive*
%FSLAX46Y46*%
G04 Gerber Fmt 4.6, Leading zero omitted, Abs format (unit mm)*
G04 Created by KiCad (PCBNEW (5.1.4)-1) date 2020-01-19 21:47:34*
%MOMM*%
%LPD*%
G04 APERTURE LIST*
%ADD10C,1.998980*%
%ADD11C,6.400000*%
%ADD12O,1.700000X1.700000*%
%ADD13R,1.700000X1.700000*%
%ADD14C,1.000000*%
G04 APERTURE END LIST*
D10*
X93472000Y-59690000D03*
X90932000Y-59690000D03*
X88392000Y-59690000D03*
X85852000Y-59690000D03*
X83312000Y-59690000D03*
X93472000Y-57150000D03*
X90932000Y-57150000D03*
X88392000Y-57150000D03*
X85852000Y-57150000D03*
X83312000Y-57150000D03*
X93472000Y-54610000D03*
X90932000Y-54610000D03*
X88392000Y-54610000D03*
X85852000Y-54610000D03*
X83312000Y-72390000D03*
X80772000Y-72390000D03*
X78232000Y-72390000D03*
X75692000Y-72390000D03*
X73152000Y-72390000D03*
X70612000Y-72390000D03*
X68072000Y-72390000D03*
X65532000Y-72390000D03*
X62992000Y-72390000D03*
X83312000Y-69850000D03*
X80772000Y-69850000D03*
X78232000Y-69850000D03*
X75692000Y-69850000D03*
X73152000Y-69850000D03*
X70612000Y-69850000D03*
X68072000Y-69850000D03*
X65532000Y-69850000D03*
X62992000Y-69850000D03*
X83312000Y-67310000D03*
X80772000Y-67310000D03*
X78232000Y-67310000D03*
X75692000Y-67310000D03*
X73152000Y-67310000D03*
X70612000Y-67310000D03*
X68072000Y-67310000D03*
X65532000Y-67310000D03*
X62992000Y-67310000D03*
X83312000Y-64770000D03*
X80772000Y-64770000D03*
X78232000Y-64770000D03*
X75692000Y-64770000D03*
X73152000Y-64770000D03*
X70612000Y-64770000D03*
X68072000Y-64770000D03*
X65532000Y-64770000D03*
X62992000Y-64770000D03*
X83312000Y-62230000D03*
X80772000Y-62230000D03*
X78232000Y-62230000D03*
X75692000Y-62230000D03*
X73152000Y-62230000D03*
X70612000Y-62230000D03*
X68072000Y-62230000D03*
X65532000Y-62230000D03*
X62992000Y-62230000D03*
X80772000Y-59690000D03*
X78232000Y-59690000D03*
X75692000Y-59690000D03*
X73152000Y-59690000D03*
X70612000Y-59690000D03*
X68072000Y-59690000D03*
X65532000Y-59690000D03*
X62992000Y-59690000D03*
X80772000Y-57150000D03*
X78232000Y-57150000D03*
X75692000Y-57150000D03*
X73152000Y-57150000D03*
X70612000Y-57150000D03*
X68072000Y-57150000D03*
X65532000Y-57150000D03*
X62992000Y-57150000D03*
X83312000Y-54610000D03*
X80772000Y-54610000D03*
X78232000Y-54610000D03*
X75692000Y-54610000D03*
X73152000Y-54610000D03*
X70612000Y-54610000D03*
X68072000Y-54610000D03*
X65532000Y-54610000D03*
X62992000Y-54610000D03*
X87122000Y-71145400D03*
X93472000Y-52095400D03*
X90932000Y-52095400D03*
X88392000Y-52095400D03*
X85852000Y-52095400D03*
X83312000Y-52095400D03*
X80772000Y-52095400D03*
X78232000Y-52095400D03*
X75692000Y-52095400D03*
X73152000Y-52095400D03*
X70612000Y-52095400D03*
X93472000Y-49555400D03*
X90932000Y-49555400D03*
X88392000Y-49555400D03*
X85852000Y-49555400D03*
X83312000Y-49555400D03*
X80772000Y-49555400D03*
X78232000Y-49555400D03*
X75692000Y-49555400D03*
X73152000Y-49555400D03*
X70612000Y-49555400D03*
X93472000Y-47015400D03*
X90932000Y-47015400D03*
X88392000Y-47015400D03*
X85852000Y-47015400D03*
X83312000Y-47015400D03*
X80772000Y-47015400D03*
X78232000Y-47015400D03*
X75692000Y-47015400D03*
X73152000Y-47015400D03*
X70612000Y-47015400D03*
X156972000Y-62230000D03*
X154432000Y-62230000D03*
X151892000Y-62230000D03*
X156972000Y-59690000D03*
X154432000Y-59690000D03*
X151892000Y-59690000D03*
X156972000Y-57150000D03*
X154432000Y-57150000D03*
X151892000Y-57150000D03*
X156972000Y-54610000D03*
X154432000Y-54610000D03*
X151892000Y-54610000D03*
X149352000Y-52070000D03*
X146812000Y-52070000D03*
X144272000Y-52070000D03*
X141732000Y-52070000D03*
X139192000Y-52070000D03*
X136652000Y-52070000D03*
X134112000Y-52070000D03*
X131572000Y-52070000D03*
X129032000Y-52070000D03*
X126492000Y-52070000D03*
X123952000Y-52070000D03*
X121412000Y-52070000D03*
X118872000Y-52070000D03*
X116332000Y-52070000D03*
X113792000Y-52070000D03*
X111252000Y-52070000D03*
X108712000Y-52070000D03*
X106172000Y-52070000D03*
X103632000Y-52070000D03*
X101092000Y-52070000D03*
X98552000Y-52070000D03*
X96012000Y-52070000D03*
X149352000Y-49530000D03*
X146812000Y-49530000D03*
X144272000Y-49530000D03*
X141732000Y-49530000D03*
X139192000Y-49530000D03*
X136652000Y-49530000D03*
X134112000Y-49530000D03*
X131572000Y-49530000D03*
X129032000Y-49530000D03*
X126492000Y-49530000D03*
X123952000Y-49530000D03*
X121412000Y-49530000D03*
X118872000Y-49530000D03*
X116332000Y-49530000D03*
X113792000Y-49530000D03*
X111252000Y-49530000D03*
X108712000Y-49530000D03*
X106172000Y-49530000D03*
X103632000Y-49530000D03*
X101092000Y-49530000D03*
X98552000Y-49530000D03*
X96012000Y-49530000D03*
X149352000Y-46990000D03*
X146812000Y-46990000D03*
X144272000Y-46990000D03*
X141732000Y-46990000D03*
X139192000Y-46990000D03*
X136652000Y-46990000D03*
X134112000Y-46990000D03*
X131572000Y-46990000D03*
X129032000Y-46990000D03*
X126492000Y-46990000D03*
X123952000Y-46990000D03*
X121412000Y-46990000D03*
X118872000Y-46990000D03*
X116332000Y-46990000D03*
X113792000Y-46990000D03*
X111252000Y-46990000D03*
X108712000Y-46990000D03*
X106172000Y-46990000D03*
X103632000Y-46990000D03*
X101092000Y-46990000D03*
X98552000Y-46990000D03*
X96012000Y-46990000D03*
X156972000Y-82575400D03*
X154432000Y-82575400D03*
X151892000Y-82575400D03*
X149352000Y-82575400D03*
X146812000Y-82575400D03*
X144272000Y-82575400D03*
X141732000Y-82575400D03*
X139192000Y-82575400D03*
X136652000Y-82575400D03*
X134112000Y-82575400D03*
X131572000Y-82575400D03*
X129032000Y-82575400D03*
X126492000Y-82575400D03*
X123952000Y-82575400D03*
X121412000Y-82575400D03*
X118872000Y-82575400D03*
X116332000Y-82575400D03*
X113792000Y-82575400D03*
X111252000Y-82575400D03*
X108712000Y-82575400D03*
X106172000Y-82575400D03*
X103632000Y-82575400D03*
X101092000Y-82575400D03*
X98552000Y-82575400D03*
X96012000Y-82575400D03*
X156972000Y-80035400D03*
X154432000Y-80035400D03*
X151892000Y-80035400D03*
X149352000Y-80035400D03*
X146812000Y-80035400D03*
X144272000Y-80035400D03*
X141732000Y-80035400D03*
X139192000Y-80035400D03*
X136652000Y-80035400D03*
X134112000Y-80035400D03*
X131572000Y-80035400D03*
X129032000Y-80035400D03*
X126492000Y-80035400D03*
X123952000Y-80035400D03*
X121412000Y-80035400D03*
X118872000Y-80035400D03*
X116332000Y-80035400D03*
X113792000Y-80035400D03*
X111252000Y-80035400D03*
X108712000Y-80035400D03*
X106172000Y-80035400D03*
X103632000Y-80035400D03*
X101092000Y-80035400D03*
X98552000Y-80035400D03*
X96012000Y-80035400D03*
X156972000Y-77495400D03*
X154432000Y-77495400D03*
X151892000Y-77495400D03*
X149352000Y-77495400D03*
X146812000Y-77495400D03*
X144272000Y-77495400D03*
X141732000Y-77495400D03*
X139192000Y-77495400D03*
X136652000Y-77495400D03*
X134112000Y-77495400D03*
X131572000Y-77495400D03*
X129032000Y-77495400D03*
X126492000Y-77495400D03*
X123952000Y-77495400D03*
X121412000Y-77495400D03*
X118872000Y-77495400D03*
X116332000Y-77495400D03*
X113792000Y-77495400D03*
X111252000Y-77495400D03*
X108712000Y-77495400D03*
X106172000Y-77495400D03*
X103632000Y-77495400D03*
X101092000Y-77495400D03*
X98552000Y-77495400D03*
X149352000Y-54610000D03*
X146812000Y-54610000D03*
X144272000Y-54610000D03*
X141732000Y-54610000D03*
X139192000Y-54610000D03*
X136652000Y-54610000D03*
X134112000Y-54610000D03*
X131572000Y-54610000D03*
X129032000Y-54610000D03*
X126492000Y-54610000D03*
X123952000Y-54610000D03*
X121412000Y-54610000D03*
X118872000Y-54610000D03*
X116332000Y-54610000D03*
X113792000Y-54610000D03*
X111252000Y-54610000D03*
X108712000Y-54610000D03*
X106172000Y-54610000D03*
X103632000Y-54610000D03*
X101092000Y-54610000D03*
X98552000Y-54610000D03*
X96012000Y-54610000D03*
X92202000Y-78765400D03*
X89662000Y-78765400D03*
X87122000Y-78765400D03*
X92202000Y-76225400D03*
X89662000Y-76225400D03*
X156972000Y-74955400D03*
X154432000Y-74955400D03*
X151892000Y-74955400D03*
X156972000Y-72415400D03*
X154432000Y-72415400D03*
X151892000Y-72415400D03*
X156972000Y-69875400D03*
X154432000Y-69875400D03*
X92202000Y-73685400D03*
X89662000Y-73685400D03*
X92202000Y-71145400D03*
X89662000Y-71145400D03*
X92202000Y-68605400D03*
X96012000Y-77495400D03*
X149352000Y-74955400D03*
X146812000Y-74955400D03*
X144272000Y-74955400D03*
X141732000Y-74955400D03*
X139192000Y-74955400D03*
X136652000Y-74955400D03*
X134112000Y-74955400D03*
X131572000Y-74955400D03*
X129032000Y-74955400D03*
X126492000Y-74955400D03*
X123952000Y-74955400D03*
X121412000Y-74955400D03*
X118872000Y-74955400D03*
X116332000Y-74955400D03*
X113792000Y-74955400D03*
X111252000Y-74955400D03*
X108712000Y-74955400D03*
X106172000Y-74955400D03*
X103632000Y-74955400D03*
X101092000Y-74955400D03*
X98552000Y-74955400D03*
X96012000Y-74955400D03*
X151892000Y-69875400D03*
X156972000Y-67335400D03*
X154432000Y-67335400D03*
X151892000Y-67335400D03*
X156972000Y-64795400D03*
X154432000Y-64795400D03*
X151892000Y-64795400D03*
D11*
X155000000Y-49000000D03*
X65000000Y-49000000D03*
D10*
X87122000Y-76225400D03*
X149352000Y-72415400D03*
X146812000Y-72415400D03*
X144272000Y-72415400D03*
X141732000Y-72415400D03*
X139192000Y-72415400D03*
X136652000Y-72415400D03*
X134112000Y-72415400D03*
X131572000Y-72415400D03*
X129032000Y-72415400D03*
X126492000Y-72415400D03*
X123952000Y-72415400D03*
X121412000Y-72415400D03*
X118872000Y-72415400D03*
X116332000Y-72415400D03*
X113792000Y-72415400D03*
X111252000Y-72415400D03*
X108712000Y-72415400D03*
X106172000Y-72415400D03*
X103632000Y-72415400D03*
X101092000Y-72415400D03*
X98552000Y-72415400D03*
X96012000Y-72415400D03*
X87122000Y-73685400D03*
X149352000Y-69875400D03*
X146812000Y-69875400D03*
X144272000Y-69875400D03*
X141732000Y-69875400D03*
X139192000Y-69875400D03*
X136652000Y-69875400D03*
X134112000Y-69875400D03*
X131572000Y-69875400D03*
X129032000Y-69875400D03*
X126492000Y-69875400D03*
X123952000Y-69875400D03*
X121412000Y-69875400D03*
X118872000Y-69875400D03*
X116332000Y-69875400D03*
X113792000Y-69875400D03*
X111252000Y-69875400D03*
X108712000Y-69875400D03*
X106172000Y-69875400D03*
X103632000Y-69875400D03*
X101092000Y-69875400D03*
X98552000Y-69875400D03*
X96012000Y-69875400D03*
X149352000Y-62255400D03*
X146812000Y-62255400D03*
X144272000Y-62255400D03*
X141732000Y-62255400D03*
X139192000Y-62255400D03*
X136652000Y-62255400D03*
X134112000Y-62255400D03*
X131572000Y-62255400D03*
X129032000Y-62255400D03*
X126492000Y-62255400D03*
X123952000Y-62255400D03*
X121412000Y-62255400D03*
X118872000Y-62255400D03*
X116332000Y-62255400D03*
X113792000Y-62255400D03*
X111252000Y-62255400D03*
X108712000Y-62255400D03*
X106172000Y-62255400D03*
X103632000Y-62255400D03*
X101092000Y-62255400D03*
X98552000Y-62255400D03*
X96012000Y-62255400D03*
X89662000Y-68605400D03*
X87122000Y-68605400D03*
X149352000Y-59715400D03*
X146812000Y-59715400D03*
X144272000Y-59715400D03*
X141732000Y-59715400D03*
X139192000Y-59715400D03*
X136652000Y-59715400D03*
X134112000Y-59715400D03*
X131572000Y-59715400D03*
X129032000Y-59715400D03*
X126492000Y-59715400D03*
X123952000Y-59715400D03*
X121412000Y-59715400D03*
X118872000Y-59715400D03*
X116332000Y-59715400D03*
X113792000Y-59715400D03*
X111252000Y-59715400D03*
X108712000Y-59715400D03*
X106172000Y-59715400D03*
X103632000Y-59715400D03*
X101092000Y-59715400D03*
X98552000Y-59715400D03*
X96012000Y-59715400D03*
X92202000Y-66065400D03*
X89662000Y-66065400D03*
X87122000Y-66065400D03*
X149352000Y-57175400D03*
X146812000Y-57175400D03*
X144272000Y-57175400D03*
X141732000Y-57175400D03*
X139192000Y-57175400D03*
X136652000Y-57175400D03*
X134112000Y-57175400D03*
X131572000Y-57175400D03*
X129032000Y-57175400D03*
X126492000Y-57175400D03*
X123952000Y-57175400D03*
X121412000Y-57175400D03*
X118872000Y-57175400D03*
X116332000Y-57175400D03*
X113792000Y-57175400D03*
X111252000Y-57175400D03*
X108712000Y-57175400D03*
X106172000Y-57175400D03*
X103632000Y-57175400D03*
X101092000Y-57175400D03*
X98552000Y-57175400D03*
X96012000Y-57175400D03*
X92202000Y-63525400D03*
X89662000Y-63525400D03*
X87122000Y-63525400D03*
D12*
X80780000Y-78778000D03*
X80780000Y-81318000D03*
X78240000Y-78778000D03*
X78240000Y-81318000D03*
X75700000Y-78778000D03*
X75700000Y-81318000D03*
X73160000Y-78778000D03*
X73160000Y-81318000D03*
X70620000Y-78778000D03*
X70620000Y-81318000D03*
X68080000Y-78778000D03*
X68080000Y-81318000D03*
X65540000Y-78778000D03*
X65540000Y-81318000D03*
X63000000Y-78778000D03*
D13*
X63000000Y-81318000D03*
D14*
X96012000Y-59715400D02*
X96012000Y-62255400D01*
X98552000Y-59715400D02*
X98552000Y-62255400D01*
X101092000Y-59715400D02*
X101092000Y-62255400D01*
X103632000Y-59715400D02*
X103632000Y-62255400D01*
X106172000Y-59715400D02*
X106172000Y-62255400D01*
X108712000Y-59715400D02*
X108712000Y-62255400D01*
X111252000Y-59715400D02*
X111252000Y-62255400D01*
X113792000Y-59715400D02*
X113792000Y-62255400D01*
X116332000Y-59715400D02*
X116332000Y-62255400D01*
X118872000Y-59715400D02*
X118872000Y-62255400D01*
X121412000Y-59715400D02*
X121412000Y-62255400D01*
X123952000Y-59715400D02*
X123952000Y-62255400D01*
X126492000Y-59715400D02*
X126492000Y-62255400D01*
X129032000Y-59715400D02*
X129032000Y-62255400D01*
X131572000Y-59715400D02*
X131572000Y-62255400D01*
X134112000Y-59715400D02*
X134112000Y-62255400D01*
X136652000Y-59715400D02*
X136652000Y-62255400D01*
X139192000Y-59715400D02*
X139192000Y-62255400D01*
X141732000Y-59715400D02*
X141732000Y-62255400D01*
X144272000Y-59715400D02*
X144272000Y-62255400D01*
X146812000Y-59715400D02*
X146812000Y-62255400D01*
X149352000Y-59715400D02*
X149352000Y-62255400D01*
X149352000Y-72415400D02*
X149352000Y-69875400D01*
X146812000Y-72415400D02*
X146812000Y-69875400D01*
X144272000Y-72415400D02*
X144272000Y-69875400D01*
X141732000Y-72415400D02*
X141732000Y-69875400D01*
X139192000Y-72415400D02*
X139192000Y-69875400D01*
X136652000Y-72415400D02*
X136652000Y-69875400D01*
X134112000Y-72415400D02*
X134112000Y-69875400D01*
X131572000Y-72415400D02*
X131572000Y-69875400D01*
X129032000Y-72415400D02*
X129032000Y-69875400D01*
X126492000Y-72415400D02*
X126492000Y-69875400D01*
X123952000Y-72415400D02*
X123952000Y-69875400D01*
X121412000Y-72415400D02*
X121412000Y-69875400D01*
X118872000Y-72415400D02*
X118872000Y-69875400D01*
X116332000Y-72415400D02*
X116332000Y-69875400D01*
X113792000Y-72415400D02*
X113792000Y-69875400D01*
X111252000Y-72415400D02*
X111252000Y-69875400D01*
X108712000Y-72415400D02*
X108712000Y-69875400D01*
X106172000Y-72415400D02*
X106172000Y-69875400D01*
X103632000Y-72415400D02*
X103632000Y-69875400D01*
X101092000Y-72415400D02*
X101092000Y-69875400D01*
X98552000Y-72415400D02*
X98552000Y-69875400D01*
X96012000Y-72415400D02*
X96012000Y-69875400D01*
X92202000Y-78765400D02*
X92202000Y-76225400D01*
X92202000Y-76225400D02*
X92202000Y-73685400D01*
X92202000Y-73685400D02*
X92202000Y-71145400D01*
X92202000Y-71145400D02*
X92202000Y-68605400D01*
X92202000Y-68605400D02*
X92202000Y-66065400D01*
X92202000Y-66065400D02*
X92202000Y-63525400D01*
X87122000Y-78765400D02*
X87122000Y-76225400D01*
X87122000Y-76225400D02*
X87122000Y-73685400D01*
X87122000Y-73685400D02*
X87122000Y-71145400D01*
X87122000Y-71145400D02*
X87122000Y-68605400D01*
X87122000Y-68605400D02*
X87122000Y-66065400D01*
X87122000Y-66065400D02*
X87122000Y-63525400D01*
X89662000Y-63525400D02*
X89662000Y-66065400D01*
X89662000Y-66065400D02*
X89662000Y-68605400D01*
X89662000Y-71145400D02*
X89662000Y-68605400D01*
X89662000Y-73685400D02*
X89662000Y-71145400D01*
X89662000Y-76225400D02*
X89662000Y-73685400D01*
X89662000Y-78765400D02*
X89662000Y-76225400D01*
X75700000Y-82520081D02*
X76745919Y-83566000D01*
X75700000Y-81318000D02*
X75700000Y-82520081D01*
X76745919Y-83566000D02*
X88138000Y-83566000D01*
X88138000Y-83566000D02*
X89662000Y-82042000D01*
X89662000Y-82042000D02*
X89662000Y-78765400D01*
X63000000Y-72398000D02*
X62992000Y-72390000D01*
X63000000Y-78778000D02*
X63000000Y-72398000D01*
X62992000Y-72390000D02*
X62992000Y-69850000D01*
X62992000Y-69850000D02*
X62992000Y-67310000D01*
X65540000Y-72398000D02*
X65532000Y-72390000D01*
X65540000Y-78778000D02*
X65540000Y-72398000D01*
X65532000Y-72390000D02*
X65532000Y-69850000D01*
X65532000Y-69850000D02*
X65532000Y-67310000D01*
X68080000Y-72398000D02*
X68072000Y-72390000D01*
X68080000Y-78778000D02*
X68080000Y-72398000D01*
X68072000Y-72390000D02*
X68072000Y-69850000D01*
X68072000Y-69850000D02*
X68072000Y-67310000D01*
M02*
