G04 #@! TF.GenerationSoftware,KiCad,Pcbnew,(5.1.4)-1*
G04 #@! TF.CreationDate,2020-01-19T21:47:34+01:00*
G04 #@! TF.ProjectId,EuroHelper,4575726f-4865-46c7-9065-722e6b696361,rev?*
G04 #@! TF.SameCoordinates,Original*
G04 #@! TF.FileFunction,Legend,Bot*
G04 #@! TF.FilePolarity,Positive*
%FSLAX46Y46*%
G04 Gerber Fmt 4.6, Leading zero omitted, Abs format (unit mm)*
G04 Created by KiCad (PCBNEW (5.1.4)-1) date 2020-01-19 21:47:34*
%MOMM*%
%LPD*%
G04 APERTURE LIST*
%ADD10C,0.150000*%
G04 APERTURE END LIST*
D10*
X92349628Y-80937266D02*
X92349628Y-81699171D01*
X92730580Y-82699171D02*
X92730580Y-82127742D01*
X92730580Y-82413457D02*
X91730580Y-82413457D01*
X91873438Y-82318219D01*
X91968676Y-82222980D01*
X92016295Y-82127742D01*
X91825819Y-83080123D02*
X91778200Y-83127742D01*
X91730580Y-83222980D01*
X91730580Y-83461076D01*
X91778200Y-83556314D01*
X91825819Y-83603933D01*
X91921057Y-83651552D01*
X92016295Y-83651552D01*
X92159152Y-83603933D01*
X92730580Y-83032504D01*
X92730580Y-83651552D01*
X89162000Y-81508695D02*
X89114380Y-81413457D01*
X89114380Y-81270600D01*
X89162000Y-81127742D01*
X89257238Y-81032504D01*
X89352476Y-80984885D01*
X89542952Y-80937266D01*
X89685809Y-80937266D01*
X89876285Y-80984885D01*
X89971523Y-81032504D01*
X90066761Y-81127742D01*
X90114380Y-81270600D01*
X90114380Y-81365838D01*
X90066761Y-81508695D01*
X90019142Y-81556314D01*
X89685809Y-81556314D01*
X89685809Y-81365838D01*
X90114380Y-81984885D02*
X89114380Y-81984885D01*
X90114380Y-82556314D01*
X89114380Y-82556314D01*
X90114380Y-83032504D02*
X89114380Y-83032504D01*
X89114380Y-83270600D01*
X89162000Y-83413457D01*
X89257238Y-83508695D01*
X89352476Y-83556314D01*
X89542952Y-83603933D01*
X89685809Y-83603933D01*
X89876285Y-83556314D01*
X89971523Y-83508695D01*
X90066761Y-83413457D01*
X90114380Y-83270600D01*
X90114380Y-83032504D01*
X87168028Y-80861066D02*
X87168028Y-81622971D01*
X87548980Y-81242019D02*
X86787076Y-81242019D01*
X87548980Y-82622971D02*
X87548980Y-82051542D01*
X87548980Y-82337257D02*
X86548980Y-82337257D01*
X86691838Y-82242019D01*
X86787076Y-82146780D01*
X86834695Y-82051542D01*
X86644219Y-83003923D02*
X86596600Y-83051542D01*
X86548980Y-83146780D01*
X86548980Y-83384876D01*
X86596600Y-83480114D01*
X86644219Y-83527733D01*
X86739457Y-83575352D01*
X86834695Y-83575352D01*
X86977552Y-83527733D01*
X87548980Y-82956304D01*
X87548980Y-83575352D01*
M02*
