G04 #@! TF.GenerationSoftware,KiCad,Pcbnew,(5.1.4)-1*
G04 #@! TF.CreationDate,2020-01-19T21:47:34+01:00*
G04 #@! TF.ProjectId,EuroHelper,4575726f-4865-46c7-9065-722e6b696361,rev?*
G04 #@! TF.SameCoordinates,Original*
G04 #@! TF.FileFunction,Legend,Top*
G04 #@! TF.FilePolarity,Positive*
%FSLAX46Y46*%
G04 Gerber Fmt 4.6, Leading zero omitted, Abs format (unit mm)*
G04 Created by KiCad (PCBNEW (5.1.4)-1) date 2020-01-19 21:47:34*
%MOMM*%
%LPD*%
G04 APERTURE LIST*
%ADD10C,0.150000*%
%ADD11C,0.120000*%
%ADD12C,0.600000*%
G04 APERTURE END LIST*
D10*
X67549780Y-74437904D02*
X67549780Y-74914095D01*
X68025971Y-74961714D01*
X67978352Y-74914095D01*
X67930733Y-74818857D01*
X67930733Y-74580761D01*
X67978352Y-74485523D01*
X68025971Y-74437904D01*
X68121209Y-74390285D01*
X68359304Y-74390285D01*
X68454542Y-74437904D01*
X68502161Y-74485523D01*
X68549780Y-74580761D01*
X68549780Y-74818857D01*
X68502161Y-74914095D01*
X68454542Y-74961714D01*
X65914542Y-75303047D02*
X65962161Y-75350666D01*
X66009780Y-75493523D01*
X66009780Y-75588761D01*
X65962161Y-75731619D01*
X65866923Y-75826857D01*
X65771685Y-75874476D01*
X65581209Y-75922095D01*
X65438352Y-75922095D01*
X65247876Y-75874476D01*
X65152638Y-75826857D01*
X65057400Y-75731619D01*
X65009780Y-75588761D01*
X65009780Y-75493523D01*
X65057400Y-75350666D01*
X65105019Y-75303047D01*
X65009780Y-75017333D02*
X66009780Y-74684000D01*
X65009780Y-74350666D01*
X62492000Y-76342761D02*
X62444380Y-76438000D01*
X62444380Y-76580857D01*
X62492000Y-76723714D01*
X62587238Y-76818952D01*
X62682476Y-76866571D01*
X62872952Y-76914190D01*
X63015809Y-76914190D01*
X63206285Y-76866571D01*
X63301523Y-76818952D01*
X63396761Y-76723714D01*
X63444380Y-76580857D01*
X63444380Y-76485619D01*
X63396761Y-76342761D01*
X63349142Y-76295142D01*
X63015809Y-76295142D01*
X63015809Y-76485619D01*
X63444380Y-75438000D02*
X62920571Y-75438000D01*
X62825333Y-75485619D01*
X62777714Y-75580857D01*
X62777714Y-75771333D01*
X62825333Y-75866571D01*
X63396761Y-75438000D02*
X63444380Y-75533238D01*
X63444380Y-75771333D01*
X63396761Y-75866571D01*
X63301523Y-75914190D01*
X63206285Y-75914190D01*
X63111047Y-75866571D01*
X63063428Y-75771333D01*
X63063428Y-75533238D01*
X63015809Y-75438000D01*
X62777714Y-75104666D02*
X62777714Y-74723714D01*
X62444380Y-74961809D02*
X63301523Y-74961809D01*
X63396761Y-74914190D01*
X63444380Y-74818952D01*
X63444380Y-74723714D01*
X63396761Y-74009428D02*
X63444380Y-74104666D01*
X63444380Y-74295142D01*
X63396761Y-74390380D01*
X63301523Y-74438000D01*
X62920571Y-74438000D01*
X62825333Y-74390380D01*
X62777714Y-74295142D01*
X62777714Y-74104666D01*
X62825333Y-74009428D01*
X62920571Y-73961809D01*
X63015809Y-73961809D01*
X63111047Y-74438000D01*
D11*
X66802000Y-73914000D02*
X66802000Y-66040000D01*
X64262000Y-66040000D02*
X64262000Y-73914000D01*
X61722000Y-73914000D02*
X61722000Y-66040000D01*
X69342000Y-73914000D02*
X61722000Y-73914000D01*
X69342000Y-66040000D02*
X69342000Y-73914000D01*
X61722000Y-66040000D02*
X69342000Y-66040000D01*
X93472000Y-62230000D02*
X90932000Y-62230000D01*
X93472000Y-80264000D02*
X93472000Y-62230000D01*
X90932000Y-80264000D02*
X93472000Y-80264000D01*
X90932000Y-80264000D02*
X88392000Y-80264000D01*
X90932000Y-62230000D02*
X90932000Y-80264000D01*
X88392000Y-62230000D02*
X90932000Y-62230000D01*
X85852000Y-62230000D02*
X88392000Y-62230000D01*
X85852000Y-80264000D02*
X85852000Y-62230000D01*
X88392000Y-80264000D02*
X85852000Y-80264000D01*
X88392000Y-62230000D02*
X88392000Y-80264000D01*
D10*
X87193428Y-83680133D02*
X87193428Y-82918228D01*
X87574380Y-83299180D02*
X86812476Y-83299180D01*
X87574380Y-81918228D02*
X87574380Y-82489657D01*
X87574380Y-82203942D02*
X86574380Y-82203942D01*
X86717238Y-82299180D01*
X86812476Y-82394419D01*
X86860095Y-82489657D01*
X86669619Y-81537276D02*
X86622000Y-81489657D01*
X86574380Y-81394419D01*
X86574380Y-81156323D01*
X86622000Y-81061085D01*
X86669619Y-81013466D01*
X86764857Y-80965847D01*
X86860095Y-80965847D01*
X87002952Y-81013466D01*
X87574380Y-81584895D01*
X87574380Y-80965847D01*
X89162000Y-83007104D02*
X89114380Y-83102342D01*
X89114380Y-83245200D01*
X89162000Y-83388057D01*
X89257238Y-83483295D01*
X89352476Y-83530914D01*
X89542952Y-83578533D01*
X89685809Y-83578533D01*
X89876285Y-83530914D01*
X89971523Y-83483295D01*
X90066761Y-83388057D01*
X90114380Y-83245200D01*
X90114380Y-83149961D01*
X90066761Y-83007104D01*
X90019142Y-82959485D01*
X89685809Y-82959485D01*
X89685809Y-83149961D01*
X90114380Y-82530914D02*
X89114380Y-82530914D01*
X90114380Y-81959485D01*
X89114380Y-81959485D01*
X90114380Y-81483295D02*
X89114380Y-81483295D01*
X89114380Y-81245200D01*
X89162000Y-81102342D01*
X89257238Y-81007104D01*
X89352476Y-80959485D01*
X89542952Y-80911866D01*
X89685809Y-80911866D01*
X89876285Y-80959485D01*
X89971523Y-81007104D01*
X90066761Y-81102342D01*
X90114380Y-81245200D01*
X90114380Y-81483295D01*
X92341428Y-83683333D02*
X92341428Y-82921428D01*
X92722380Y-81921428D02*
X92722380Y-82492857D01*
X92722380Y-82207142D02*
X91722380Y-82207142D01*
X91865238Y-82302380D01*
X91960476Y-82397619D01*
X92008095Y-82492857D01*
X91817619Y-81540476D02*
X91770000Y-81492857D01*
X91722380Y-81397619D01*
X91722380Y-81159523D01*
X91770000Y-81064285D01*
X91817619Y-81016666D01*
X91912857Y-80969047D01*
X92008095Y-80969047D01*
X92150952Y-81016666D01*
X92722380Y-81588095D01*
X92722380Y-80969047D01*
X138906952Y-68143380D02*
X138906952Y-67143380D01*
X138906952Y-67524333D02*
X139002190Y-67476714D01*
X139192666Y-67476714D01*
X139287904Y-67524333D01*
X139335523Y-67571952D01*
X139383142Y-67667190D01*
X139383142Y-67952904D01*
X139335523Y-68048142D01*
X139287904Y-68095761D01*
X139192666Y-68143380D01*
X139002190Y-68143380D01*
X138906952Y-68095761D01*
X139716476Y-67476714D02*
X139954571Y-68143380D01*
X140192666Y-67476714D02*
X139954571Y-68143380D01*
X139859333Y-68381476D01*
X139811714Y-68429095D01*
X139716476Y-68476714D01*
X141240285Y-67143380D02*
X141478380Y-68143380D01*
X141668857Y-67429095D01*
X141859333Y-68143380D01*
X142097428Y-67143380D01*
X142621238Y-68143380D02*
X142526000Y-68095761D01*
X142478380Y-68048142D01*
X142430761Y-67952904D01*
X142430761Y-67667190D01*
X142478380Y-67571952D01*
X142526000Y-67524333D01*
X142621238Y-67476714D01*
X142764095Y-67476714D01*
X142859333Y-67524333D01*
X142906952Y-67571952D01*
X142954571Y-67667190D01*
X142954571Y-67952904D01*
X142906952Y-68048142D01*
X142859333Y-68095761D01*
X142764095Y-68143380D01*
X142621238Y-68143380D01*
X143526000Y-68143380D02*
X143430761Y-68095761D01*
X143383142Y-68048142D01*
X143335523Y-67952904D01*
X143335523Y-67667190D01*
X143383142Y-67571952D01*
X143430761Y-67524333D01*
X143526000Y-67476714D01*
X143668857Y-67476714D01*
X143764095Y-67524333D01*
X143811714Y-67571952D01*
X143859333Y-67667190D01*
X143859333Y-67952904D01*
X143811714Y-68048142D01*
X143764095Y-68095761D01*
X143668857Y-68143380D01*
X143526000Y-68143380D01*
X144287904Y-68143380D02*
X144287904Y-67143380D01*
X144526000Y-67143380D01*
X144668857Y-67191000D01*
X144764095Y-67286238D01*
X144811714Y-67381476D01*
X144859333Y-67571952D01*
X144859333Y-67714809D01*
X144811714Y-67905285D01*
X144764095Y-68000523D01*
X144668857Y-68095761D01*
X144526000Y-68143380D01*
X144287904Y-68143380D01*
X145192666Y-67143380D02*
X145430761Y-68143380D01*
X145621238Y-67429095D01*
X145811714Y-68143380D01*
X146049809Y-67143380D01*
X146573619Y-68143380D02*
X146478380Y-68095761D01*
X146430761Y-68048142D01*
X146383142Y-67952904D01*
X146383142Y-67667190D01*
X146430761Y-67571952D01*
X146478380Y-67524333D01*
X146573619Y-67476714D01*
X146716476Y-67476714D01*
X146811714Y-67524333D01*
X146859333Y-67571952D01*
X146906952Y-67667190D01*
X146906952Y-67952904D01*
X146859333Y-68048142D01*
X146811714Y-68095761D01*
X146716476Y-68143380D01*
X146573619Y-68143380D01*
X147335523Y-68143380D02*
X147335523Y-67476714D01*
X147335523Y-67667190D02*
X147383142Y-67571952D01*
X147430761Y-67524333D01*
X147526000Y-67476714D01*
X147621238Y-67476714D01*
X147954571Y-68143380D02*
X147954571Y-67143380D01*
X148049809Y-67762428D02*
X148335523Y-68143380D01*
X148335523Y-67476714D02*
X147954571Y-67857666D01*
X149145047Y-68095761D02*
X149049809Y-68143380D01*
X148859333Y-68143380D01*
X148764095Y-68095761D01*
X148716476Y-68000523D01*
X148716476Y-67619571D01*
X148764095Y-67524333D01*
X148859333Y-67476714D01*
X149049809Y-67476714D01*
X149145047Y-67524333D01*
X149192666Y-67619571D01*
X149192666Y-67714809D01*
X148716476Y-67810047D01*
X150192666Y-68143380D02*
X149859333Y-67667190D01*
X149621238Y-68143380D02*
X149621238Y-67143380D01*
X150002190Y-67143380D01*
X150097428Y-67191000D01*
X150145047Y-67238619D01*
X150192666Y-67333857D01*
X150192666Y-67476714D01*
X150145047Y-67571952D01*
X150097428Y-67619571D01*
X150002190Y-67667190D01*
X149621238Y-67667190D01*
D12*
X95942285Y-65927314D02*
X96942285Y-65927314D01*
X97370857Y-67498742D02*
X95942285Y-67498742D01*
X95942285Y-64498742D01*
X97370857Y-64498742D01*
X99942285Y-65498742D02*
X99942285Y-67498742D01*
X98656571Y-65498742D02*
X98656571Y-67070171D01*
X98799428Y-67355885D01*
X99085142Y-67498742D01*
X99513714Y-67498742D01*
X99799428Y-67355885D01*
X99942285Y-67213028D01*
X101370857Y-67498742D02*
X101370857Y-65498742D01*
X101370857Y-66070171D02*
X101513714Y-65784457D01*
X101656571Y-65641600D01*
X101942285Y-65498742D01*
X102228000Y-65498742D01*
X103656571Y-67498742D02*
X103370857Y-67355885D01*
X103228000Y-67213028D01*
X103085142Y-66927314D01*
X103085142Y-66070171D01*
X103228000Y-65784457D01*
X103370857Y-65641600D01*
X103656571Y-65498742D01*
X104085142Y-65498742D01*
X104370857Y-65641600D01*
X104513714Y-65784457D01*
X104656571Y-66070171D01*
X104656571Y-66927314D01*
X104513714Y-67213028D01*
X104370857Y-67355885D01*
X104085142Y-67498742D01*
X103656571Y-67498742D01*
X108228000Y-67498742D02*
X108228000Y-64498742D01*
X109370857Y-64498742D01*
X109656571Y-64641600D01*
X109799428Y-64784457D01*
X109942285Y-65070171D01*
X109942285Y-65498742D01*
X109799428Y-65784457D01*
X109656571Y-65927314D01*
X109370857Y-66070171D01*
X108228000Y-66070171D01*
X111228000Y-67498742D02*
X111228000Y-65498742D01*
X111228000Y-66070171D02*
X111370857Y-65784457D01*
X111513714Y-65641600D01*
X111799428Y-65498742D01*
X112085142Y-65498742D01*
X113513714Y-67498742D02*
X113228000Y-67355885D01*
X113085142Y-67213028D01*
X112942285Y-66927314D01*
X112942285Y-66070171D01*
X113085142Y-65784457D01*
X113228000Y-65641600D01*
X113513714Y-65498742D01*
X113942285Y-65498742D01*
X114228000Y-65641600D01*
X114370857Y-65784457D01*
X114513714Y-66070171D01*
X114513714Y-66927314D01*
X114370857Y-67213028D01*
X114228000Y-67355885D01*
X113942285Y-67498742D01*
X113513714Y-67498742D01*
X115370857Y-65498742D02*
X116513714Y-65498742D01*
X115799428Y-64498742D02*
X115799428Y-67070171D01*
X115942285Y-67355885D01*
X116228000Y-67498742D01*
X116513714Y-67498742D01*
X117942285Y-67498742D02*
X117656571Y-67355885D01*
X117513714Y-67213028D01*
X117370857Y-66927314D01*
X117370857Y-66070171D01*
X117513714Y-65784457D01*
X117656571Y-65641600D01*
X117942285Y-65498742D01*
X118370857Y-65498742D01*
X118656571Y-65641600D01*
X118799428Y-65784457D01*
X118942285Y-66070171D01*
X118942285Y-66927314D01*
X118799428Y-67213028D01*
X118656571Y-67355885D01*
X118370857Y-67498742D01*
X117942285Y-67498742D01*
X123942285Y-67498742D02*
X122513714Y-67498742D01*
X122513714Y-64498742D01*
D10*
X61884038Y-83015200D02*
X61788800Y-82967580D01*
X61645942Y-82967580D01*
X61503085Y-83015200D01*
X61407847Y-83110438D01*
X61360228Y-83205676D01*
X61312609Y-83396152D01*
X61312609Y-83539009D01*
X61360228Y-83729485D01*
X61407847Y-83824723D01*
X61503085Y-83919961D01*
X61645942Y-83967580D01*
X61741180Y-83967580D01*
X61884038Y-83919961D01*
X61931657Y-83872342D01*
X61931657Y-83539009D01*
X61741180Y-83539009D01*
X62788800Y-83967580D02*
X62788800Y-83443771D01*
X62741180Y-83348533D01*
X62645942Y-83300914D01*
X62455466Y-83300914D01*
X62360228Y-83348533D01*
X62788800Y-83919961D02*
X62693561Y-83967580D01*
X62455466Y-83967580D01*
X62360228Y-83919961D01*
X62312609Y-83824723D01*
X62312609Y-83729485D01*
X62360228Y-83634247D01*
X62455466Y-83586628D01*
X62693561Y-83586628D01*
X62788800Y-83539009D01*
X63122133Y-83300914D02*
X63503085Y-83300914D01*
X63264990Y-82967580D02*
X63264990Y-83824723D01*
X63312609Y-83919961D01*
X63407847Y-83967580D01*
X63503085Y-83967580D01*
X64217371Y-83919961D02*
X64122133Y-83967580D01*
X63931657Y-83967580D01*
X63836419Y-83919961D01*
X63788800Y-83824723D01*
X63788800Y-83443771D01*
X63836419Y-83348533D01*
X63931657Y-83300914D01*
X64122133Y-83300914D01*
X64217371Y-83348533D01*
X64264990Y-83443771D01*
X64264990Y-83539009D01*
X63788800Y-83634247D01*
X65438352Y-83897742D02*
X65390733Y-83945361D01*
X65247876Y-83992980D01*
X65152638Y-83992980D01*
X65009780Y-83945361D01*
X64914542Y-83850123D01*
X64866923Y-83754885D01*
X64819304Y-83564409D01*
X64819304Y-83421552D01*
X64866923Y-83231076D01*
X64914542Y-83135838D01*
X65009780Y-83040600D01*
X65152638Y-82992980D01*
X65247876Y-82992980D01*
X65390733Y-83040600D01*
X65438352Y-83088219D01*
X65724066Y-82992980D02*
X66057400Y-83992980D01*
X66390733Y-82992980D01*
X68335495Y-83043780D02*
X67859304Y-83043780D01*
X67811685Y-83519971D01*
X67859304Y-83472352D01*
X67954542Y-83424733D01*
X68192638Y-83424733D01*
X68287876Y-83472352D01*
X68335495Y-83519971D01*
X68383114Y-83615209D01*
X68383114Y-83853304D01*
X68335495Y-83948542D01*
X68287876Y-83996161D01*
X68192638Y-84043780D01*
X67954542Y-84043780D01*
X67859304Y-83996161D01*
X67811685Y-83948542D01*
X74803095Y-83091400D02*
X74707857Y-83043780D01*
X74565000Y-83043780D01*
X74422142Y-83091400D01*
X74326904Y-83186638D01*
X74279285Y-83281876D01*
X74231666Y-83472352D01*
X74231666Y-83615209D01*
X74279285Y-83805685D01*
X74326904Y-83900923D01*
X74422142Y-83996161D01*
X74565000Y-84043780D01*
X74660238Y-84043780D01*
X74803095Y-83996161D01*
X74850714Y-83948542D01*
X74850714Y-83615209D01*
X74660238Y-83615209D01*
X75279285Y-84043780D02*
X75279285Y-83043780D01*
X75850714Y-84043780D01*
X75850714Y-83043780D01*
X76326904Y-84043780D02*
X76326904Y-83043780D01*
X76565000Y-83043780D01*
X76707857Y-83091400D01*
X76803095Y-83186638D01*
X76850714Y-83281876D01*
X76898333Y-83472352D01*
X76898333Y-83615209D01*
X76850714Y-83805685D01*
X76803095Y-83900923D01*
X76707857Y-83996161D01*
X76565000Y-84043780D01*
X76326904Y-84043780D01*
X69100866Y-83637428D02*
X69862771Y-83637428D01*
X69481819Y-84018380D02*
X69481819Y-83256476D01*
X70862771Y-84018380D02*
X70291342Y-84018380D01*
X70577057Y-84018380D02*
X70577057Y-83018380D01*
X70481819Y-83161238D01*
X70386580Y-83256476D01*
X70291342Y-83304095D01*
X71243723Y-83113619D02*
X71291342Y-83066000D01*
X71386580Y-83018380D01*
X71624676Y-83018380D01*
X71719914Y-83066000D01*
X71767533Y-83113619D01*
X71815152Y-83208857D01*
X71815152Y-83304095D01*
X71767533Y-83446952D01*
X71196104Y-84018380D01*
X71815152Y-84018380D01*
X78930666Y-83688228D02*
X79692571Y-83688228D01*
X80692571Y-84069180D02*
X80121142Y-84069180D01*
X80406857Y-84069180D02*
X80406857Y-83069180D01*
X80311619Y-83212038D01*
X80216380Y-83307276D01*
X80121142Y-83354895D01*
X81073523Y-83164419D02*
X81121142Y-83116800D01*
X81216380Y-83069180D01*
X81454476Y-83069180D01*
X81549714Y-83116800D01*
X81597333Y-83164419D01*
X81644952Y-83259657D01*
X81644952Y-83354895D01*
X81597333Y-83497752D01*
X81025904Y-84069180D01*
X81644952Y-84069180D01*
D11*
X73152000Y-76784200D02*
X82092800Y-76784200D01*
X73152000Y-76301600D02*
X73152000Y-76784200D01*
X70612000Y-76301600D02*
X73152000Y-76301600D01*
X70612000Y-76758800D02*
X70612000Y-76301600D01*
X61214000Y-76758800D02*
X70612000Y-76758800D01*
X61670000Y-82648000D02*
X61670000Y-81318000D01*
X63000000Y-82648000D02*
X61670000Y-82648000D01*
X61670000Y-80048000D02*
X61670000Y-77448000D01*
X64270000Y-80048000D02*
X61670000Y-80048000D01*
X64270000Y-82648000D02*
X64270000Y-80048000D01*
X61670000Y-77448000D02*
X82110000Y-77448000D01*
X64270000Y-82648000D02*
X82110000Y-82648000D01*
X82110000Y-82648000D02*
X82110000Y-77448000D01*
M02*
