M48
; DRILL file {KiCad (5.1.4)-1} date 19.01.2020 21:47:31
; FORMAT={-:-/ absolute / inch / decimal}
; #@! TF.CreationDate,2020-01-19T21:47:31+01:00
; #@! TF.GenerationSoftware,Kicad,Pcbnew,(5.1.4)-1
; #@! TF.FileFunction,Plated,1,2,PTH
FMAT,2
INCH
T1C0.0315
T2C0.0394
T3C0.1260
%
G90
G05
T1
X5.38Y-2.951
X5.88Y-3.051
X5.98Y-2.15
X3.08Y-2.25
X3.08Y-2.75
X3.28Y-2.75
X4.68Y-3.051
X5.78Y-2.251
X4.38Y-3.151
X4.58Y-3.251
X5.68Y-1.95
X2.98Y-2.35
X3.28Y-2.35
X6.08Y-2.25
X4.58Y-2.15
X3.53Y-3.001
X3.78Y-2.951
X4.18Y-2.351
X5.68Y-3.151
X5.38Y-1.95
X4.98Y-2.05
X3.18Y-2.15
X2.58Y-2.75
X2.68Y-2.85
X3.88Y-3.051
X5.38Y-2.15
X4.78Y-2.451
X4.98Y-2.351
X4.18Y-3.151
X5.58Y-3.251
X5.78Y-1.85
X2.48Y-2.45
X3.48Y-1.851
X4.88Y-2.751
X6.18Y-2.951
X5.08Y-2.951
X5.08Y-2.251
X3.88Y-3.251
X3.78Y-2.05
X5.08Y-2.05
X3.08Y-2.45
X3.38Y-1.951
X5.08Y-3.051
X5.08Y-2.15
X4.18Y-2.451
X4.78Y-2.351
X6.18Y-3.051
X3.88Y-1.85
X5.68Y-2.05
X2.88Y-2.45
X6.18Y-2.35
X5.58Y-2.751
X5.98Y-2.951
X4.38Y-2.15
X3.78Y-2.451
X5.28Y-2.351
X4.68Y-3.251
X5.48Y-1.85
X5.28Y-2.05
X6.08Y-2.35
X4.68Y-2.251
X5.08Y-2.851
X4.68Y-2.751
X6.08Y-2.751
X5.48Y-2.15
X3.43Y-2.701
X5.98Y-3.151
X4.18Y-1.95
X3.18Y-2.45
X3.08Y-1.851
X4.18Y-2.751
X3.98Y-2.15
X4.88Y-2.351
X4.88Y-3.251
X4.08Y-1.95
X2.88Y-2.15
X3.28Y-2.25
X2.98Y-1.851
X5.68Y-2.951
X3.78Y-2.251
X5.58Y-2.851
X4.58Y-2.751
X3.63Y-2.801
X4.28Y-2.451
X5.28Y-3.151
X4.58Y-1.85
X5.88Y-1.95
X2.88Y-2.55
X2.78Y-1.951
X4.58Y-2.251
X3.98Y-2.851
X5.58Y-2.451
X3.63Y-2.601
X5.08Y-3.251
X5.88Y-1.85
X3.28Y-2.85
X3.48Y-2.051
X5.38Y-2.851
X5.38Y-2.751
X5.38Y-3.051
X4.18Y-2.05
X2.58Y-2.25
X3.28Y-2.55
X3.68Y-1.951
X4.48Y-3.051
X4.78Y-2.751
X5.98Y-2.751
X5.28Y-2.451
X5.18Y-2.351
X5.68Y-3.251
X4.48Y-1.95
X3.38Y-2.15
X2.98Y-1.951
X5.78Y-2.951
X4.38Y-2.851
X3.98Y-2.751
X3.98Y-2.951
X3.98Y-3.151
X2.88Y-2.25
X2.58Y-2.65
X2.98Y-2.051
X4.18Y-2.251
X5.58Y-2.251
X6.08Y-3.251
X4.78Y-1.95
X3.08Y-2.15
X3.68Y-2.25
X3.08Y-1.951
X5.48Y-2.851
X3.43Y-2.801
X4.38Y-2.951
X4.78Y-3.151
X3.18Y-2.35
X2.78Y-2.65
X2.78Y-2.85
X3.38Y-2.051
X5.68Y-2.351
X4.98Y-2.251
X6.08Y-3.151
X4.98Y-1.95
X2.48Y-2.25
X4.28Y-2.851
X4.98Y-2.751
X4.68Y-2.951
X4.28Y-3.151
X4.78Y-2.05
X2.78Y-2.75
X4.38Y-3.051
X6.08Y-2.851
X3.43Y-3.001
X5.68Y-2.451
X3.88Y-2.351
X5.98Y-3.051
X5.48Y-3.251
X5.38Y-1.85
X2.58Y-2.35
X2.88Y-2.85
X6.08Y-2.15
X4.08Y-2.751
X4.08Y-2.951
X4.48Y-2.351
X3.78Y-3.151
X2.98Y-2.75
X3.18Y-2.75
X4.78Y-3.051
X5.68Y-2.15
X5.88Y-2.451
X5.38Y-2.251
X5.58Y-3.051
X5.88Y-3.251
X4.98Y-1.85
X3.08Y-2.35
X6.08Y-2.45
X5.78Y-2.751
X4.88Y-2.951
X5.88Y-3.151
X4.68Y-1.85
X3.88Y-2.05
X2.48Y-2.55
X3.18Y-2.65
X3.48Y-2.25
X5.28Y-2.15
X4.38Y-2.451
X5.38Y-2.351
X4.48Y-3.151
X4.38Y-1.85
X5.78Y-1.95
X2.68Y-2.45
X6.18Y-2.45
X4.48Y-2.751
X6.08Y-2.951
X4.28Y-2.15
X5.48Y-2.451
X4.48Y-2.951
X5.68Y-2.251
X3.98Y-3.251
X5.08Y-1.85
X4.08Y-2.05
X3.08Y-2.55
X5.98Y-2.25
X5.18Y-3.051
X4.48Y-2.851
X4.98Y-2.15
X5.18Y-2.451
X3.78Y-2.351
X4.98Y-3.151
X4.48Y-1.85
X5.78Y-2.05
X2.58Y-2.45
X6.18Y-2.25
X5.08Y-2.751
X3.63Y-3.101
X4.18Y-2.15
X6.08Y-2.651
X5.58Y-2.351
X3.78Y-3.251
X5.68Y-1.85
X5.38Y-2.05
X3.38Y-2.25
X4.28Y-2.251
X4.78Y-2.851
X3.53Y-2.901
X4.78Y-2.15
X5.78Y-2.451
X4.18Y-3.251
X4.18Y-1.85
X5.48Y-1.95
X3.28Y-2.45
X3.38Y-1.851
X3.43Y-2.901
X3.88Y-2.15
X6.08Y-2.551
X4.58Y-2.451
X5.08Y-2.351
X4.98Y-3.251
X3.78Y-1.95
X3.58Y-2.35
X3.68Y-1.851
X5.58Y-2.951
X3.63Y-2.501
X5.28Y-2.851
X4.28Y-2.751
X3.53Y-2.801
X5.78Y-2.15
X5.38Y-2.451
X6.08Y-3.051
X4.28Y-2.05
X2.98Y-2.55
X3.48Y-1.951
X3.53Y-2.501
X3.98Y-2.451
X3.43Y-2.601
X5.28Y-3.251
X4.88Y-1.85
X3.58Y-2.051
X4.88Y-2.851
X5.48Y-2.951
X4.58Y-3.151
X5.58Y-2.05
X2.68Y-2.25
X2.48Y-2.65
X2.78Y-2.051
X4.48Y-2.251
X3.63Y-3.001
X3.53Y-2.701
X3.98Y-2.351
X5.78Y-3.251
X3.98Y-1.95
X2.78Y-2.15
X3.58Y-2.15
X3.98Y-3.051
X5.68Y-2.851
X3.88Y-2.751
X5.28Y-2.951
X4.88Y-3.151
X2.88Y-2.35
X3.08Y-2.65
X3.48Y-2.15
X3.18Y-2.051
X5.28Y-2.251
X6.18Y-3.251
X4.88Y-1.95
X2.48Y-2.85
X3.18Y-1.951
X4.08Y-2.851
X4.28Y-2.951
X5.28Y-3.051
X2.68Y-2.35
X2.98Y-2.65
X3.68Y-2.051
X6.18Y-2.851
X5.98Y-2.651
X5.08Y-2.451
X4.28Y-2.351
X5.68Y-3.051
X4.68Y-1.95
X2.78Y-2.25
X2.88Y-1.851
X3.78Y-3.051
X4.18Y-2.951
X5.18Y-3.151
X2.88Y-2.75
X2.98Y-2.85
X4.58Y-3.051
X6.18Y-2.751
X5.48Y-2.251
X5.58Y-3.151
X3.78Y-1.85
X5.28Y-1.95
X2.78Y-2.35
X6.18Y-2.15
X3.78Y-2.851
X3.43Y-3.101
X3.88Y-2.951
X3.53Y-2.601
X5.38Y-3.151
X4.48Y-2.05
X2.98Y-2.15
X2.48Y-2.75
X3.08Y-2.85
X4.88Y-3.051
X5.18Y-2.251
X5.48Y-3.051
X4.48Y-3.251
X5.48Y-2.05
X3.28Y-1.851
X4.68Y-2.15
X5.68Y-2.751
X3.78Y-2.15
X5.18Y-2.951
X6.18Y-3.151
X5.58Y-1.85
X4.68Y-2.05
X2.68Y-2.55
X2.68Y-2.75
X3.38Y-2.35
X4.98Y-3.051
X3.63Y-2.901
X4.88Y-2.451
X4.08Y-2.351
X5.78Y-3.051
X4.08Y-1.85
X5.18Y-1.95
X2.78Y-2.45
X2.88Y-1.951
X5.28Y-2.751
X4.48Y-2.15
X4.68Y-2.451
X4.38Y-2.351
X4.08Y-3.251
X5.28Y-1.85
X5.18Y-2.05
X2.78Y-2.55
X5.98Y-2.35
X5.88Y-2.951
X4.88Y-2.251
X5.18Y-2.851
X4.88Y-2.15
X4.08Y-2.451
X5.78Y-3.151
X4.28Y-1.85
X4.78Y-1.85
X2.98Y-2.45
X2.78Y-1.851
X4.38Y-2.751
X4.08Y-2.15
X5.98Y-2.551
X5.88Y-2.351
X5.48Y-2.351
X4.78Y-3.251
X3.88Y-1.95
X3.98Y-2.05
X2.58Y-2.85
X3.58Y-1.851
X4.08Y-2.251
X5.78Y-2.851
X5.18Y-2.751
X5.98Y-2.851
X5.58Y-2.15
X4.28Y-3.251
X3.98Y-1.85
X5.58Y-1.95
X2.58Y-2.55
X3.28Y-1.951
X4.28Y-3.051
X5.88Y-2.751
X6.18Y-2.551
X4.98Y-2.451
X4.58Y-2.351
X4.38Y-3.251
X4.28Y-1.95
X2.68Y-2.15
X3.18Y-2.85
X3.28Y-2.051
X3.43Y-2.501
X4.58Y-2.851
X5.18Y-2.15
X4.08Y-3.151
X4.58Y-2.05
X3.28Y-2.15
X3.18Y-2.55
X3.58Y-1.951
X3.98Y-2.251
X3.53Y-3.101
X3.88Y-2.451
X5.38Y-3.251
X4.38Y-1.95
X3.88Y-2.251
X4.18Y-2.851
X5.48Y-2.751
X5.88Y-2.15
X4.78Y-2.951
X4.68Y-3.151
X5.88Y-2.05
X2.48Y-2.35
X2.88Y-2.65
X2.88Y-2.051
X4.78Y-2.251
X6.18Y-2.651
X5.88Y-2.251
X5.98Y-3.251
X5.18Y-1.85
X2.58Y-2.15
X3.58Y-2.25
X2.48Y-2.15
X4.18Y-3.051
X4.98Y-2.851
X3.78Y-2.751
X4.58Y-2.951
X5.48Y-3.151
X4.88Y-2.05
X2.68Y-2.65
X3.48Y-2.35
X3.08Y-2.051
X4.38Y-2.251
X5.88Y-2.851
X4.48Y-2.451
X5.18Y-3.251
X4.58Y-1.95
X3.68Y-2.35
X5.98Y-2.45
X4.68Y-2.851
X3.88Y-2.851
X4.98Y-2.951
X3.88Y-3.151
X4.38Y-2.05
X2.98Y-2.25
X3.28Y-2.65
X4.08Y-3.051
X3.63Y-2.701
X5.78Y-2.351
X4.68Y-2.351
X5.08Y-3.151
X5.08Y-1.95
X3.18Y-2.25
X3.68Y-2.15
X3.18Y-1.851
T2
X2.4803Y-3.1015
X2.4803Y-3.2015
X2.5803Y-3.1015
X2.5803Y-3.2015
X2.6803Y-3.1015
X2.6803Y-3.2015
X2.7803Y-3.1015
X2.7803Y-3.2015
X2.8803Y-3.1015
X2.8803Y-3.2015
X2.9803Y-3.1015
X2.9803Y-3.2015
X3.0803Y-3.1015
X3.0803Y-3.2015
X3.1803Y-3.1015
X3.1803Y-3.2015
T3
X6.1024Y-1.9291
X2.5591Y-1.9291
T0
M30
